<?xml version="1.0" encoding="UTF-8" standalone="no"?>
<!-- Created with Inkscape (http://www.inkscape.org/) -->

<svg
   xmlns:dc="http://purl.org/dc/elements/1.1/"
   xmlns:cc="http://creativecommons.org/ns#"
   xmlns:rdf="http://www.w3.org/1999/02/22-rdf-syntax-ns#"
   xmlns:svg="http://www.w3.org/2000/svg"
   xmlns="http://www.w3.org/2000/svg"
   xmlns:sodipodi="http://sodipodi.sourceforge.net/DTD/sodipodi-0.dtd"
   xmlns:inkscape="http://www.inkscape.org/namespaces/inkscape"
   width="100"
   height="20"
   id="svg2"
   version="1.1"
   inkscape:version="0.48.4 r9939"
   sodipodi:docname="icons.svg">
  <defs
     id="defs4" />
  <sodipodi:namedview
     id="base"
     pagecolor="#ffffff"
     bordercolor="#666666"
     borderopacity="1.0"
     inkscape:pageopacity="0.0"
     inkscape:pageshadow="2"
     inkscape:zoom="8"
     inkscape:cx="56.686416"
     inkscape:cy="11.873255"
     inkscape:document-units="px"
     inkscape:current-layer="layer1"
     showgrid="true"
     inkscape:showpageshadow="false"
     showborder="false"
     fit-margin-top="0"
     fit-margin-left="0"
     fit-margin-right="0"
     fit-margin-bottom="0"
     inkscape:window-width="1280"
     inkscape:window-height="972"
     inkscape:window-x="-8"
     inkscape:window-y="-8"
     inkscape:window-maximized="1"
     borderlayer="true">
    <inkscape:grid
       type="xygrid"
       id="grid3804"
       empspacing="5"
       visible="true"
       enabled="true"
       snapvisiblegridlinesonly="true"
       originx="9.0956046px"
       originy="-735.25133px" />
  </sodipodi:namedview>
  <metadata
     id="metadata7">
    <rdf:RDF>
      <cc:Work
         rdf:about="">
        <dc:format>image/svg+xml</dc:format>
        <dc:type
           rdf:resource="http://purl.org/dc/dcmitype/StillImage" />
        <dc:title></dc:title>
      </cc:Work>
    </rdf:RDF>
  </metadata>
  <g
     inkscape:label="Layer 1"
     inkscape:groupmode="layer"
     id="layer1"
     transform="translate(9.0956046,-297.11087)">
    <path
       id="rect3773-7-4"
       style="fill:none;stroke:#ffffff;stroke-width:2.0709796;stroke-linecap:square;stroke-linejoin:round;stroke-miterlimit:4;stroke-opacity:1;stroke-dashoffset:2.62600008"
       d="m 25.431383,313.4277 -0.998553,-4.3e-4 0.01328,-12.62255 0.998546,4.6e-4 z m -7.055187,-5.49942 0.0011,-0.94341 13.358707,0.0153 -6.18e-4,0.94318 z m 16.119217,-0.77621 c -4e-6,4.93169 -4.231062,8.92965 -9.450344,8.92965 -5.21928,0 -9.450342,-3.99796 -9.450342,-8.92965 10e-7,-4.93169 4.231063,-8.92965 9.450341,-8.92965 5.219284,10e-6 9.450345,3.99796 9.450345,8.92965 z"
       inkscape:connector-curvature="0" />
    <path
       id="rect3773-7-48"
       style="fill:none;stroke:#ffffff;stroke-width:2.0709796;stroke-linecap:square;stroke-linejoin:round;stroke-miterlimit:4;stroke-opacity:1;stroke-dashoffset:2.62600008"
       d="m 42.035454,307.92828 6.78e-4,-0.94341 13.35871,0.0153 -6.79e-4,0.94318 z m 16.180382,-0.81105 c -4e-6,4.93163 -4.231065,8.9296 -9.450349,8.9296 -5.219279,-10e-6 -9.45034,-3.99797 -9.450341,-8.9296 3e-6,-4.93178 4.231062,-8.92964 9.450341,-8.92964 5.219284,0 9.450349,3.99786 9.450349,8.92964 z"
       inkscape:connector-curvature="0" />
    <path
       inkscape:connector-curvature="0"
       id="rect3773-7-4-8"
       style="fill:none;stroke:#000000;stroke-width:2.0709796;stroke-linecap:square;stroke-linejoin:round;stroke-miterlimit:4;stroke-opacity:1;stroke-dashoffset:2.62600008"
       d="m 6.3586502,311.31071 -0.6980418,0.67468 -9.5476815,-8.82839 0.6980441,-0.67482 z m -9.0933355,0.92667 -0.7138477,-0.65964 9.3455961,-9.01947 0.7139386,0.65962 z M 7.9401348,300.79853 c 3.7339382,3.44591 3.8046452,9.09936 0.1579294,12.62743 -3.64673,3.52833 -9.6299345,3.59517 -13.3638768,0.14926 -3.733936,-3.44567 -3.8046452,-9.09934 -0.1579228,-12.62741 3.646725,-3.52816 9.6299317,-3.59498 13.3638702,-0.14928 z" />
  </g>
</svg>
