<?xml version="1.0" encoding="UTF-8" standalone="no"?>
<!-- Created with Inkscape (http://www.inkscape.org/) -->

<svg
   xmlns:dc="http://purl.org/dc/elements/1.1/"
   xmlns:cc="http://creativecommons.org/ns#"
   xmlns:rdf="http://www.w3.org/1999/02/22-rdf-syntax-ns#"
   xmlns:svg="http://www.w3.org/2000/svg"
   xmlns="http://www.w3.org/2000/svg"
   xmlns:sodipodi="http://sodipodi.sourceforge.net/DTD/sodipodi-0.dtd"
   xmlns:inkscape="http://www.inkscape.org/namespaces/inkscape"
   id="svg2985"
   version="1.1"
   inkscape:version="0.48.4 r9939"
   width="723.88135"
   height="625.75488"
   sodipodi:docname="wow1.svg">
  <metadata
     id="metadata2991">
    <rdf:RDF>
      <cc:Work
         rdf:about="">
        <dc:format>image/svg+xml</dc:format>
        <dc:type
           rdf:resource="http://purl.org/dc/dcmitype/StillImage" />
        <dc:title></dc:title>
      </cc:Work>
    </rdf:RDF>
  </metadata>
  <defs
     id="defs2989" />
  <sodipodi:namedview
     pagecolor="#ffffff"
     bordercolor="#666666"
     borderopacity="1"
     objecttolerance="10"
     gridtolerance="10"
     guidetolerance="10"
     inkscape:pageopacity="0"
     inkscape:pageshadow="2"
     inkscape:window-width="1280"
     inkscape:window-height="972"
     id="namedview2987"
     showgrid="false"
     showborder="false"
     inkscape:showpageshadow="false"
     fit-margin-top="0"
     fit-margin-left="0"
     fit-margin-right="0"
     fit-margin-bottom="0"
     inkscape:zoom="0.47843234"
     inkscape:cx="318.17722"
     inkscape:cy="282.20223"
     inkscape:window-x="-8"
     inkscape:window-y="-8"
     inkscape:window-maximized="1"
     inkscape:current-layer="svg2985" />
  <g
     inkscape:groupmode="layer"
     id="layer1"
     inkscape:label="1"
     style="display:inline"
     transform="translate(-459.76636,-987.43084)" />
  <g
     id="g4183"
     transform="matrix(0.76923077,0,0,0.76923077,0,144.40498)">
    <g
       transform="matrix(0.89793718,0,0,0.89793718,-0.13959554,144.13612)"
       id="g4083">
      <g
         id="g4050"
         transform="matrix(0.40200439,0,0,0.40200439,-184.7656,-112.14641)">
        <path
           inkscape:connector-curvature="0"
           id="path3016"
           d="m 1990.8244,417.2573 c -0.9111,-1.43664 0.1403,-4.91887 2.1523,-3.38766 1.0057,1.26187 3.4759,1.95735 3.5104,-0.34863 1.2185,-1.36955 3.5784,-1.72401 3.6218,-3.49177 0.7238,-0.34684 3.4966,0.46419 3.4174,-1.30279 -0.8118,-1.09818 2.0274,-1.83093 2.5649,-2.95636 1.5986,0.0949 -0.143,-1.73143 -0.076,-1.26792 1.4056,-0.65719 3.0478,-1.1253 3.3928,-2.77509 1.7556,-1.75234 3.5858,-3.60077 5.9869,-4.42459 2.6328,0.46464 3.7551,-2.9177 6.2572,-2.96249 2.5616,-0.34708 5.1606,0.22945 7.7146,-0.21979 2.2311,0.58033 0.9275,3.38548 1.0942,4.99913 -0.8372,1.26273 -1.5314,2.56858 -2.14,3.93533 -0.6303,0.64378 -1.3541,1.31612 -0.7536,2.07566 -1.2745,0.99339 -3.1144,0.63504 -3.9149,2.33732 -0.616,0.48568 -3.1298,0.31337 -2.6184,1.58917 1.0579,0.44209 -1.4591,1.37983 -2.0265,1.86742 -1.1973,1.0503 -2.2028,2.38818 -3.8402,2.83926 -1.3527,0.50911 -2.8666,0.64361 -4.2679,0.25472 -0.451,2.52598 -3.3888,2.09933 -5.1296,2.87139 -0.9908,0.49558 -3.9822,0.22205 -3.4672,1.55832 0.2701,1.66685 -2.3866,0.85511 -3.4311,0.92887 -1.8295,0.11894 -3.996,-0.0405 -5.1888,-1.63687 -0.6919,-0.91308 -3.666,-1.20714 -2.4131,0.57053 1.8958,0.5282 0.3292,-1.01041 -0.4449,-1.05316 z"
           style="fill:#dadada;fill-opacity:1;stroke:none" />
        <path
           sodipodi:nodetypes="ccccccccsccscccccccccccccccccccc"
           inkscape:connector-curvature="0"
           id="path2998"
           d="m 1076.3795,1563.7098 c 15.8431,-79.559 -6.8562,-163.7527 19.8942,-240.7726 35.0997,-65.756 79.3127,-129.1864 104.8159,-201.3722 41.8638,-61.8656 5.1237,-137.338 -12.114,-200.7446 -22.1063,-58.28469 -52.9288,-116.35723 -49.8913,-180.63343 -14.274,-80.74225 35.09,-151.30945 44.8252,-227.9487 16.045,-58.73759 46.3817,-109.05248 80.2523,-161.05871 45.8224,-43.9505 115.1166,-45.32624 103.7321,-123.75132 16.2807,-50.10222 57.6465,-217.882067 91.9508,-158.133701 34.622,60.301941 63.0404,120.916821 116.5396,160.666261 72.5886,26.42809 153.4725,13.63849 229.301,21.60324 68.3871,-0.0948 71.6558,-70.03316 127.7763,-111.80372 75.584,-56.257267 94.9546,-63.994455 111.5406,5.43104 20.7026,57.99274 28.8145,134.03587 18.1443,195.38263 -52.2575,60.89753 3.8733,97.3569 34.8614,175.76505 -2.2261,86.8069 2.6319,155.13152 33.8379,225.99183 16.3544,32.55349 40.6486,48.43898 18.6188,84.92623 22.1643,25.09646 25.3934,69.91149 27.0663,83.3308 11.0786,8.1939 11.1046,81.62499 6.2022,108.8771 -21.1501,63.4059 2.6269,83.9803 29.0274,146.1736 20.6264,71.8023 -33.1663,136.1234 13.9533,200.2127 -2.9887,48.8908 -16.1494,127.4127 33.9641,170.6865 -18.5369,99.6381 -189.7501,-13.5082 -236.0447,51.9809 -57.4648,56.6966 -126.4442,-0.6845 -189.0604,-10.9333 -62.0196,-18.9855 -127.2845,47.4364 -179.3457,-0.052 -62.6525,-36.9007 -127.3782,11.5052 -190.1744,7.4384 -68.4828,-32.5044 -155.5851,-35.3872 -221.0711,6.2221 -55.0565,27.3888 -93.0019,-42.1053 -152.2312,-18.3622 l -6.6882,-3.3721 -9.6827,-5.7501 0,0 z"
           style="fill:#f5f5f5;fill-opacity:1;stroke:none" />
        <path
           inkscape:connector-curvature="0"
           id="path3050"
           d="m 1402.4444,858.80353 c -9.114,-0.64249 -16.967,5.31243 -25.938,6.10687 -38.4573,3.40563 -37.588,-4.02808 -68.9368,-12.61821 -7.3235,-2.00678 -4.4388,1.58335 -24.023,-9.39217 -9.1213,-5.11185 -12.1405,-17.21744 -16.0527,-26.9703 -2.8939,-7.10426 5.3913,-11.35912 11.3056,-11.55544 8.3416,-0.87244 16.7649,-0.25011 25.1439,-0.43743 8.2411,-0.18563 16.2228,2.55703 24.3873,3.35883 9.7998,2.35705 19.0882,6.34966 28.3664,10.21527 7.8054,3.83996 16.3637,5.88278 24.0253,10.06647 6.9618,3.31096 13.8052,6.85187 20.5043,10.66218 5.6226,3.45493 10.0606,8.80416 13.328,14.46639 2.2089,7.83884 -10.7846,4.3477 -14.723,6.62009"
           style="fill:#282828;fill-opacity:1;stroke:none"
           sodipodi:nodetypes="csssccccccccc" />
        <path
           inkscape:connector-curvature="0"
           id="path3002"
           d="m 1778.6732,282.442 c 6.5618,4.90976 6.5686,15.56066 14.8241,18.65589 10.1004,4.83978 17.2528,13.75179 24.4951,21.93322 8.4644,6.77081 17.9254,13.21215 22.6915,23.31591 5.3202,7.07437 13.0205,11.98986 17.997,19.35535 7.8607,1.83898 3.8076,-10.95919 4.5574,-15.70396 -1.116,-8.38392 -4.291,-16.6175 -3.0419,-25.18971 0.093,-8.07668 -0.4619,-16.19387 0.5773,-24.2324 5.4815,-10.63449 15.0532,-18.96098 18.2417,-30.80527 4.8494,-12.95597 8.7635,-26.50721 16.4191,-38.1553 2.3898,-5.70314 -3.8798,-4.80582 -5.3202,-0.53529 -10.1215,12.48154 -18.6876,26.34598 -30.9379,36.97041 -11.7022,10.00318 -20.7859,22.47403 -30.9552,33.92095 -7.9977,8.43406 -22.2329,4.90008 -29.1172,-3.19898 -6.1673,-6.20954 -15.0033,-9.37077 -20.4308,-16.33082 z"
           style="fill:#c6c6c6;fill-opacity:1;stroke:none" />
        <path
           inkscape:connector-curvature="0"
           id="path3022"
           d="m 2000.2301,438.15889 c -0.2572,7.73327 1.0571,15.4126 1.6944,23.09319 0.7772,5.19131 0.8682,11.1242 -2.634,15.41377 -2.8601,1.68571 -7.5285,3.10155 -7.5592,7.01696 2.3062,3.78723 8.15,2.93658 11.0298,6.49099 2.4645,2.80883 6.0048,4.33319 8.3782,7.26311 2.9309,3.32512 4.839,7.36512 7.2883,11.03026 1.7236,2.80709 2.6876,6.0004 3.2868,9.19319 2.0877,4.8022 4.0585,9.84477 4.0678,15.15932 0.7545,5.09333 7.2034,2.08084 5.6744,-2.08631 1.7345,-8.65542 5.1325,-17.13476 4.491,-26.11571 0.015,-4.88787 -1.4551,-9.74111 -4.4841,-13.61001 -2.8203,-4.4148 -5.7036,-8.84555 -8.0423,-13.51299 -1.8985,-4.65432 2.9299,-7.46148 5.6114,-10.32123 2.5572,-2.65372 2.6625,-6.52648 4.0799,-9.77563 1.0679,-3.16103 2.204,-6.31243 3.7203,-9.29067 -0.059,-4.73359 -5.6856,-3.99265 -8.9274,-3.5387 -7.0525,1.7825 -2.3918,-9.09286 -7.9701,-9.57136 -5.134,0.12965 -10.4711,-0.43204 -15.4675,0.67716 -1.5178,0.6333 -2.8852,1.56324 -4.2377,2.48466 z"
           style="fill:#c6c6c6;fill-opacity:1;stroke:none" />
        <path
           inkscape:connector-curvature="0"
           id="path3028"
           d="m 1692.5157,582.68814 c -9.3113,3.03499 -17.7894,8.62767 -27.7219,9.64284 -9.5993,1.15071 -19.3899,0.15057 -28.8716,-1.43286 -6.8802,-1.65546 -12.6952,-6.10804 -19.7514,-7.12307 -8.4252,-2.08626 -16.5237,-5.68314 -25.1358,-6.74427 -8.5341,-2.64915 -4.9686,-12.3375 -7.7085,-18.37884 -2.9917,-5.40033 -10.9269,-9.33434 -8.7969,-16.49054 3.692,-8.20007 12.5562,-12.12619 17.9217,-19.04948 4.7986,-5.27666 11.7557,-7.1317 17.8128,-10.34219 7.0048,-4.86981 11.9781,-12.19748 19.5776,-16.31539 8.1308,-6.1584 16.9666,-14.06363 27.9969,-12.45149 19.572,1.46634 36.4418,12.42622 53.6026,20.83876 9.8379,6.13885 16.7464,15.90886 23.2091,25.32208 4.2366,7.26949 1.201,16.77517 -5.3084,21.60062 -6.9071,7.08276 -11.5959,17.02702 -21.2679,20.87155 -3.4456,4.18056 -6.4124,0.65126 -2.2333,-2.47591 3.2164,-4.92674 10.1047,-12.74844 8.6348,-17.19147 -8.9591,3.98769 -10.1191,16.69569 -20.1581,19.28272 -7.8292,2.28671 -15.9619,3.70224 -24.0298,4.71015 -7.466,0.79951 -15.527,2.71143 -22.624,-0.75289 -6.3368,-7.68399 -8.0117,-17.89472 -10.4447,-27.25152 -0.7965,-9.72917 6.5929,-17.39099 8.56,-26.51116 2.2153,-7.83041 11.0181,-7.12125 15.6133,-2.08565 9.1686,0.58343 5.1493,-13.70279 -2.888,-11.27437 -7.3079,-0.9846 -14.5967,-3.66064 -22.044,-2.37168 -9.4414,6.20237 -14.2809,16.91144 -19.9269,26.26126 -5.6148,10.28747 -2.6922,22.73338 2.2723,32.62975 5.3069,8.06835 14.818,11.61984 21.7814,17.94881 8.0639,4.58294 17.6309,1.56774 26.378,2.51124 8.8395,0.94302 17.0309,-3.08864 25.5507,-3.377 z"
           style="fill:#181818;fill-opacity:1;stroke:none" />
        <path
           inkscape:connector-curvature="0"
           id="path3036"
           d="m 1331.5225,477.38306 c -1.3478,6.68018 -1.5951,13.52563 -1.478,20.32203 2.3587,5.32205 6.514,10.09261 12.0456,12.20136 -0.03,-4.49328 -4.2178,-7.9179 -3.7449,-12.61773 -1.4328,-5.65782 -3.5945,-11.78683 -0.9835,-17.46801 2.2676,-5.48558 4.2145,-11.1168 6.7476,-16.48393 1.9978,-4.13821 5.2252,-7.54939 8.9544,-10.13496 1.9113,-3.66562 -3.9746,0.92901 -5.5822,1.43486 -4.2364,2.05866 -7.8417,5.10483 -11.3501,8.16653 -2.9027,1.48429 -6.6986,6.82593 -7.1288,7.6853 1.3991,-7.21728 1.8798,-15.00581 6.4718,-21.09942 3.6643,-5.69552 7.2195,-12.42025 13.923,-14.94599 7.9144,-3.29677 16.6247,-3.07288 25.0037,-3.9863 6.8973,-0.97977 13.031,3.07732 19.4351,4.82463 5.8078,3.38162 5.861,10.87748 8.9792,16.17152 2.3245,5.01327 4.6513,10.06872 7.7881,14.62784 2.522,6.11861 -1.7552,11.95321 -4.3012,17.23735 -2.7753,5.42593 -4.1311,11.44143 -6.7886,16.89584 -4.9504,9.39018 -13.7074,17.4564 -24.5457,18.90818 -8.1709,1.49153 -16.5422,1.97829 -24.8048,1.21917 -6.9709,-1.86266 -12.453,-6.97534 -17.5501,-11.79886 -4.5706,-6.26843 -6.1845,-14.36293 -5.7458,-21.99393 0.5314,-3.44622 2.222,-6.68018 4.6552,-9.16548 z"
           style="fill:#181818;fill-opacity:1;stroke:none" />
        <path
           inkscape:connector-curvature="0"
           id="path3040"
           d="m 1288.0082,693.15838 c -10.447,-1.63037 -18.8475,-9.65508 -23.1733,-19.00222 -9.3567,-3.6063 -10.9668,-14.9222 -6.5124,-22.95219 1.7684,-11.06564 9.594,-18.68747 17.5823,-25.61609 6.078,-10.15265 18.427,-9.10142 28.2066,-12.70482 10.0318,-2.86546 20.7182,-2.62013 31.0335,-1.97651 15.792,4.35581 31.9942,7.9266 47.2003,14.17844 9.8789,4.13189 18.9347,9.9815 27.7383,15.9153 9.0672,2.66283 17.6599,10.19105 15.3917,20.54312 -0.6812,15.82509 -5.1354,31.81848 -13.686,45.18349 -8.509,10.8016 -21.3255,16.52692 -32.101,24.56638 -5.4901,4.52431 -7.2498,12.30756 -13.8392,15.75865 -7.3219,4.88632 -16.1036,6.52666 -24.5021,8.41503 -9.3847,3.14934 -15.5689,11.55288 -23.6254,16.63379 -12.2603,1.6672 -13.25,-14.80643 -20.5183,-21.27592 -6.1563,-9.07522 -12.181,-18.86597 -22.2019,-24.15912 -9.4237,-4.79624 -15.6334,-16.00387 -12.3602,-26.43086 3.098,-10.09184 15.8236,-9.23039 24.0008,-7.93422 l 1.3663,0.85775 z"
           style="fill:#181818;fill-opacity:1;stroke:none" />
        <path
           inkscape:connector-curvature="0"
           id="path3054"
           d="m 1737.2242,1020.5356 c -33.1306,12.6263 -60.1026,37.7245 -94.3605,47.8924 -30.7379,13.2773 -63.2343,22.1755 -95.8308,29.4851 -39.2468,6.9732 -79.3245,6.4127 -119.0113,7.1442 -31.3278,-3.6643 -59.1869,-19.9374 -87.1886,-33.243 -10.3,-4.8508 -27.7821,-19.1898 -31.5468,-21.2153 15.8289,18.6757 42.2488,22.3446 59.5519,39.3476 29.3833,22.475 50.0511,54.2978 63.1082,88.5706 10.7418,22.7504 18.3702,47.2442 19.4225,72.4456 12.3404,21.1107 20.5286,-15.1529 32.2289,-21.2838 19.9983,-19.9013 40.8304,-39.1561 62.8765,-56.7472 28.1295,-20.6799 61.775,-31.9921 89.6936,-52.9994 18.3669,-13.05 38.2209,-23.9758 56.5061,-37.0264 17.6235,-14.9971 30.2169,-34.6459 44.6361,-52.5047 1.4136,-3.0779 1.5392,-6.8362 -0.086,-9.8657 z"
           style="fill:#c6c6c6;fill-opacity:1;stroke:none" />
        <path
           inkscape:connector-curvature="0"
           id="path3056"
           d="m 1861.3733,936.29153 c 33.3221,-35.87987 82.9311,-57.25195 104.1996,-103.61168 9.8463,-9.5632 4.4779,-24.49008 -6.9533,-26.54591 -7.3704,-19.95761 11.8761,-35.09937 22.7438,-49.07945 24.869,-37.59148 53.766,-72.56334 77.5837,-110.95181 26.0483,-6.05758 17.8203,32.67504 29.3253,46.24171 6.3218,20.82299 27.5613,35.814 26.8657,58.91534 8.2301,21.38701 11.69,46.1667 2.5349,66.40143 10.6576,17.48223 15.4271,38.18803 -0.9489,53.18314 -8.7103,25.73691 39.3441,21.26935 25.462,44.76287 -13.4421,13.77251 -10.1552,30.81123 -11.0702,46.97907 -4.1052,12.96899 -40.304,21.24007 -28.3198,33.72376 7.6042,-2.96834 25.4878,-3.98835 10.9048,6.1124 -23.9159,10.8749 -46.8121,23.6031 -69.522,36.7736 -43.1032,24.4212 -92.1828,33.9465 -139.6209,46.223 -22.7691,11.0742 -32.0537,-19.7477 -15.7825,-33.0862 11.0767,-10.821 21.9715,-21.7074 30.3337,-35.0268 8.0374,-11.4167 15.4168,-23.31892 21.6889,-35.80065 -20.2154,-16.90759 -39.477,10.86638 -59.6295,13.46093 -21.5677,0.13567 -20.4193,-29.93812 -1.4252,-32.48699 7.1869,-12.23398 -9.1735,-29.71811 -21.326,-20.27591"
           style="fill:#c6c6c6;fill-opacity:1;stroke:none" />
        <path
           inkscape:connector-curvature="0"
           id="path3067"
           d="m 1444.5869,734.54916 c 4.6948,-6.65188 14.8009,-3.14076 21.1423,-7.68257 17.5512,-5.02454 35.8099,-7.21331 54.0126,-7.90407 20.805,0.10192 41.6103,0.0916 62.4164,0.0895 9.6089,-0.0246 19.0119,2.52398 28.3325,4.6375 7.2153,1.98397 13.8225,5.6272 21.1396,7.32617 8.6788,3.32878 -5.1266,0.83931 -8.4828,0.96615 -5.256,-0.0772 -10.3197,-1.81407 -15.4307,-2.43616 -9.809,0.20595 -19.5894,-0.8748 -29.1249,-3.14194 -19.1585,-2.85863 -38.5778,-0.83198 -57.8536,-1.51611 -11.286,0.009 -22.6658,-0.30115 -33.7258,2.28714 -7.1256,0.9965 -14.0202,3.27237 -20.8763,5.15478 -7.1663,0.79894 -14.2678,3.52887 -21.5493,2.21957 z"
           style="fill:#8e8e8e;fill-opacity:1;stroke:none" />
        <path
           inkscape:connector-curvature="0"
           id="path3071"
           d="m 1481.5361,758.9356 c 3.6374,-0.27315 7.4872,-0.0339 10.7278,1.80037 4.3972,0.3972 8.4108,2.52333 12.7866,3.05344 3.441,1.45841 6.9351,2.70865 10.1032,4.64735 3.388,0.79587 6.1158,2.21293 9.2307,3.61896 2.8259,1.45052 5.6895,2.66208 8.5741,4.04852 2.9836,1.88783 5.0207,5.28042 8.664,6.03964 3.5398,1.46998 6.1883,4.47634 9.7262,5.93148 2.6493,1.6628 0.1443,5.95109 -2.1735,3.1343 -3.3395,-2.53361 -7.9069,-2.14422 -11.3024,-4.5282 -2.6677,-0.89202 -5.5275,-1.14367 -8.1571,-2.12873 -3.6625,-0.57645 -5.4668,-4.89764 -9.2839,-5.06016 -3.4321,-0.61043 -5.9162,-3.49199 -9.3257,-4.20567 -4.0119,-1.98355 -7.9081,-4.21252 -11.9466,-6.11651 -4.3907,-1.30466 -7.6249,-4.69251 -11.5797,-6.83771 -3.2136,-2.00882 -6.6677,-3.59867 -10.0464,-5.28105 l -0.4312,-0.33298"
           style="fill:#8e8e8e;fill-opacity:1;stroke:none" />
        <path
           inkscape:connector-curvature="0"
           id="path3077"
           d="m 1236.1937,631.09153 c -5.0751,-3.77358 -8.2014,-9.454 -12.6553,-13.86209 -4.5445,-4.99258 -8.738,-10.29288 -12.7667,-15.6975 -3.3078,-3.33829 -7.5156,-5.60621 -10.843,-8.93284 -4.5183,-3.9885 -9.9237,-6.71666 -14.6773,-10.3773 -3.3623,-2.20949 -7.2752,-3.40924 -10.4603,-5.93388 -3.5339,-2.48547 -7.2868,-4.77007 -11.5107,-5.84126 -1.415,-0.56345 -6.1179,-3.28215 -5.8339,-1.29099 8.8953,7.027 19.8721,10.92294 28.4433,18.42657 5.9304,4.33262 10.9807,9.74807 17.0139,13.95134 3.9461,3.15627 6.4337,7.66163 8.3889,12.22722 2.3075,4.04944 6.4853,6.82523 8.1035,11.2984 2.5146,3.1889 6.6955,5.48254 10.6733,6.03877 0.5634,-0.006 1.1271,-0.0364 1.6904,-0.006"
           style="fill:#8e8e8e;fill-opacity:1;stroke:none" />
        <path
           inkscape:connector-curvature="0"
           id="path3081"
           d="m 1217.7191,663.60678 c -2.2262,-5.19568 -8.5061,-5.70564 -12.8074,-8.36576 -6.1306,-2.38469 -13.0961,-1.92594 -18.9504,-5.10927 -5.1068,-0.97653 -10.3172,-1.62303 -15.2589,-3.25344 -10.2103,-1.1283 -19.9809,-5.33709 -30.3726,-4.94806 -6.6908,-0.64681 -13.1564,-3.177 -19.9604,-2.68509 -5.2349,0.0576 -10.538,-1.50811 -15.7219,-0.50059 2.4943,0.5947 5.7537,0.25983 8.4935,0.96428 6.5007,1.42343 12.8643,3.40738 19.3825,4.78695 5.4167,1.1568 10.9612,1.65513 16.2082,3.54852 8.9739,2.89544 18.1279,5.13843 27.2193,7.61918 8.2515,2.1506 16.9304,2.13616 25.0112,5.03892 4.5816,0.66787 9.3132,0.86761 13.829,2.12055 0.9816,0.23954 1.9579,0.50092 2.9279,0.78381 z"
           style="fill:#8e8e8e;fill-opacity:1;stroke:none" />
        <path
           inkscape:connector-curvature="0"
           id="path3089"
           d="m 1208.8513,721.24746 c -4.7243,0.1393 -9.5378,-0.45737 -14.1765,0.71924 -6.7596,-0.36708 -13.4923,1.59056 -19.3714,4.85039 -9.0919,2.0873 -15.6652,9.22086 -23.5092,13.76996 -10.2025,7.02439 -17.9513,16.95402 -24.5294,27.31147 -2.7128,3.71768 -6.0036,7.64146 -5.932,12.5118 0.5778,-7.24706 5.9283,-12.72998 11.0725,-17.3002 3.8137,-3.55826 8.3503,-6.35837 11.8682,-10.20257 3.24,-4.45692 6.8553,-8.99541 12.0987,-11.15451 9.431,-5.31646 18.5072,-11.84498 29.2781,-14.15686 4.6253,-1.7257 9.4474,-2.73364 14.231,-3.76999 2.8745,-1.14312 5.7055,-3.24671 8.97,-2.57873 z"
           style="fill:#8e8e8e;fill-opacity:1;stroke:none" />
        <path
           inkscape:connector-curvature="0"
           id="path3094"
           d="m 1408.3767,768.54238 c 2.2488,-0.005 4.4975,0.01 6.7462,-0.007 1.0795,-0.33266 0.5951,1.21912 0.6427,1.79159 -0.1644,0.91751 0.3066,1.97489 -0.14,2.77562 -0.7754,0.42113 -0.3701,1.41542 -1.0321,1.90405 -0.7009,0.54707 -1.7593,0.6163 -2.2415,1.44412 -0.7437,0.55958 -1.7271,0.0464 -2.5749,0.21975 -0.9665,-0.11286 -2.0209,0.19414 -2.9162,-0.0626 -0.4481,-0.63481 -1.151,-0.83367 -1.8901,-0.66709 -0.8229,0.30514 -1.3791,-0.29246 -1.0025,-1.09317 -0.065,-0.79251 0.029,-1.59978 -0.091,-2.39222 0.3506,-0.73317 1.1336,-1.10153 1.6825,-1.66509 0.9283,-0.76245 1.8944,-1.47867 2.8167,-2.24795 z"
           style="fill:#565656;fill-opacity:1;stroke:none" />
        <path
           inkscape:connector-curvature="0"
           id="path3096"
           d="m 1434.9801,767.06441 c 0.8436,-0.0994 2.7991,1.13871 2.8199,-0.22909 -0.6163,-0.68558 -1.9956,-0.64235 -2.675,-0.13742 -0.245,1.3023 1.5017,1.25093 2.3617,1.44324 1.4906,-0.0674 1.2561,1.47675 1.1715,2.50402 0,1.32298 0.075,2.65066 -0.03,3.9721 -0.49,0.78817 -1.6932,0.46279 -2.2216,1.26222 -0.96,-0.13491 -0.6011,1.253 -1.6683,0.84559 -1.2654,-0.18334 -2.5502,0.0245 -3.8278,-0.0549 -0.7353,-0.12145 -2.0374,0.51884 -1.9181,-0.72842 -1.0887,0.39537 -0.3182,-1.44162 -1.3819,-0.80992 -0.2866,1.14795 0.1095,-0.89313 -0.012,-1.35263 0.08,-0.51257 -0.2502,-1.35263 0.1109,-0.44131 1.4765,4.6e-4 -0.1496,-2.31765 1.1926,-2.69277 0.7826,0.86009 1.2944,-0.61535 0.8205,-1.19681 0.45,-0.2538 1.0651,-0.16373 0.9366,-0.85605 1.2866,-0.10531 2.4174,-0.78691 3.6366,-1.24293 0.2287,-0.0939 0.4572,-0.1886 0.685,-0.28495 z"
           style="fill:#565656;fill-opacity:1;stroke:none" />
        <path
           inkscape:connector-curvature="0"
           id="path3098"
           d="m 1456.4106,761.89153 c 1.5098,-0.005 3.0196,0.009 4.5293,-0.007 0.797,-0.43063 0.5,1.06865 1.3277,0.8892 0.2247,1.119 -0.087,2.33621 0.054,3.5078 0,0.99207 0.342,2.25711 -0.7825,2.53373 0.033,0.73059 -1.2198,0.52703 -1.5441,1.16939 -1.1852,0.19649 -2.4085,-0.0956 -3.6151,0.0356 -1.0649,-0.21399 -3.3929,0.73144 -2.9589,-1.13435 0.3577,-0.86841 -0.6555,-2.63315 0.7934,-2.65725 -0.037,-1.37006 1.1091,-2.35281 1.6807,-3.50432 0.1744,-0.27597 0.3472,-0.55303 0.5152,-0.8328 z"
           style="fill:#565656;fill-opacity:1;stroke:none" />
        <path
           inkscape:connector-curvature="0"
           id="path3100"
           d="m 1423.1564,744.15594 c 1.7272,-0.003 3.4544,0.007 5.1816,-0.007 0,1.05252 2.0527,0.35717 1.4451,1.70514 0.054,0.92582 1.2668,1.42097 0.7478,2.51202 -0.025,1.10651 0.098,2.22429 -0.035,3.32985 -0.5399,1.00409 -1.8526,0.47848 -2.7502,0.59 -2.4613,0.0154 -4.9357,-0.0448 -7.3881,0.0401 -1.1566,-0.23194 -0.9169,-1.53943 -0.8985,-2.40478 -0.032,-1.30193 0.092,-2.62696 -0.083,-3.91329 0.3716,-0.97187 1.712,-0.98722 2.5533,-1.41034 0.4116,-0.14001 0.8236,-0.28014 1.2273,-0.44172 z"
           style="fill:#565656;fill-opacity:1;stroke:none" />
        <path
           inkscape:connector-curvature="0"
           id="path3102"
           d="m 1417.2445,794.40678 c 2.2488,-0.005 4.4975,0.01 6.7462,-0.007 1.0143,-0.1959 0.6391,1.16872 0.6258,1.75883 0.044,1.09112 -0.021,2.18453 0.07,3.27418 -0.728,0.38637 -0.6032,1.67271 -1.386,1.61602 -0.6859,0.66185 -1.5738,0.93048 -2.535,0.75871 -2.0348,-0.0293 -4.0729,0.002 -6.1096,-0.0158 -0.9875,0.002 -1.975,0.0112 -2.9621,0.0395 -0.7952,0.46325 -1.5533,-0.52764 -1.1473,-1.25873 0.2642,-0.37508 1.6988,-0.36974 0.8559,-0.97434 -1.0331,-0.36101 1.0986,-0.72713 1.5587,-0.94823 0.7128,-0.61159 1.8212,-0.58406 2.2532,-1.58811 0.6905,-0.87421 1.3453,-1.77676 2.0298,-2.65503 z"
           style="fill:#565656;fill-opacity:1;stroke:none" />
        <path
           inkscape:connector-curvature="0"
           id="path3897"
           d="m 1373.1822,455.66398 c -0.3484,-0.26127 -0.6968,-0.52254 -1.0451,-0.78381 -0.3304,0.10078 -0.5607,-0.2458 -0.8678,-0.26507 -0.7666,0.01 -1.5341,-0.002 -2.3012,0.007 -0.3115,0.1349 -0.2527,-0.31302 -0.2289,-0.49194 0,-0.32792 0.018,-0.65707 -0.018,-0.98385 0.1156,-0.26933 0.4184,-0.43755 0.4464,-0.74807 0.1393,-0.27251 0.4793,-0.0833 0.7135,-0.13046 1.286,-7.6e-4 2.5721,0.003 3.8581,-0.003 0.285,-0.14401 0.2007,0.25363 0.3089,0.36963 0.1596,0.17667 0.464,0.28541 0.4571,0.56369 -0.035,0.65788 -0.01,1.31895 -0.013,1.97809 0.1122,0.2746 -0.2534,0.32506 -0.4438,0.34686 -0.2855,0.0629 -0.5802,0.0829 -0.8657,0.14063 z"
           style="fill:#f2f2f2;fill-opacity:1;stroke:none" />
        <path
           inkscape:connector-curvature="0"
           id="path3906"
           d="m 1388.3358,459.8443 c 0.6967,0 1.3935,0 2.0902,0 0.2917,-0.21085 0.2029,0.37815 0.4847,0.26581 0.113,0.13919 0.033,0.27979 0.2801,0.26282 0.4241,0.18452 0.4492,0.69818 0.5933,1.04095 0.2543,0.12359 0.654,0.29243 0.4478,0.632 0.089,0.27353 0.3694,0.46548 0.3245,0.77381 0.034,0.13707 0.2933,0.34694 0.2078,0.0582 0.066,-0.18563 0.1652,0.38975 0.2351,0.49528 0.1017,0.43126 0.01,0.87872 0.038,1.31706 0.023,0.34792 0.067,0.74552 -0.2918,0.94073 -0.2552,0.19462 -0.5018,0.44613 -0.5381,0.74682 -0.269,0.0218 -0.5396,-0.0145 -0.81,-10e-4 -0.6723,0 -1.3445,0 -2.0167,0 -0.4305,0.13968 -0.1864,-0.5157 -0.456,-0.67974 -0.1732,-0.3221 -0.6576,-0.48604 -0.5902,-0.90466 0.037,-0.34976 -0.2764,-0.49984 -0.3246,-0.814 -0.1841,-0.19132 -0.1838,-0.50692 -0.4556,-0.53279 0.088,-0.43696 -0.6176,-0.4983 -0.5321,-0.94338 -0.13,-0.0827 -0.3999,-0.0447 -0.2584,-0.31022 0.1293,-0.27464 -0.023,-0.57804 -0.2591,-0.58912 -0.024,-0.35284 0.036,-0.70799 -0.017,-1.05902 0.036,-0.27172 0.391,-0.18201 0.5369,-0.39013 0.398,-0.18744 0.8496,-0.1918 1.2713,-0.30082 l 0.04,-0.008 3e-4,-3.1e-4 z"
           style="fill:#f2f2f2;fill-opacity:1;stroke:none" />
        <path
           inkscape:connector-curvature="0"
           id="path3911"
           d="m 1552.4784,451.51865 c 11.0254,-35.80359 43.7873,-63.56829 78.6072,-74.65157 31.0199,2.30435 55.9115,26.45774 76.8726,47.49258 25.7323,20.58204 21.2775,56.16065 38.7749,81.04699 25.5214,17.15103 61.3392,9.37855 91.4246,12.6655 15.4881,-3.64308 66.6141,19.10003 58.2064,-10.367 -17.9459,-23.85603 -59.0859,-22.70056 -67.7008,-54.3228 0.8222,-22.57639 7.2315,-51.40843 -21.2492,-59.41232 -9.9401,-25.28113 12.4057,-70.72722 -28.7963,-70.66702 -8.9107,-18.93332 1.2991,-57.64659 -31.5881,-49.92778 -25.2671,-29.43674 -63.4879,-1.17051 -94.8726,-20.76304 -48.1608,-13.70167 -100.1197,-13.48432 -147.5733,2.88732 -27.9416,2.64521 -51.6527,15.29764 -73.5703,32.65466 -21.0677,13.65033 -38.8791,33.06561 -51.6041,54.71006 25.8752,-1.03118 48.1573,-20.81585 75.0501,-15.9468 30.6655,5.87039 33.3914,41.85403 29.4838,66.92686 -1.6605,30.36325 -26.9215,49.85796 -42.0109,73.61356 -5.2804,27.73576 37.6668,-7.23292 54.4757,-6.8176 17.6469,-9.79447 19.8465,28.84945 38.5758,4.84066 5.7212,-4.78097 10.7952,-10.4699 17.4945,-13.96226 z"
           style="fill:#c6c6c6;fill-opacity:1;stroke:none" />
        <path
           inkscape:connector-curvature="0"
           id="path3010"
           d="m 1884.2262,384.85982 c 4.1705,-16.45562 16.8246,-29.18013 30.7558,-38.05876 8.3028,-6.98973 17.0071,-13.47881 25.5686,-20.14333 -2.2861,-7.49577 -10.5973,-1.5344 -14.806,0.93762 -3.9036,4.36314 -10.0121,-0.81478 -4.9498,-4.72094 4.0703,-6.25525 14.8218,-6.53703 16.1248,-14.6667 -5.2809,-8.07466 -15.6855,-0.0797 -23.0918,-1.88654 -9.8883,-4.45777 2.6265,-11.63892 8.4636,-11.51666 10.149,-2.09096 19.6588,-6.22885 29.2071,-10.09491 16.1847,-5.66014 33.0471,-9.14418 49.3101,-14.51425 9.5943,-0.42029 7.3875,11.62999 1.5379,15.2595 -2.6167,4.83911 -9.2169,14.24578 -7.8231,16.98379 8.7085,-0.0507 8.1272,12.24312 3.2434,16.85342 -6.1352,10.58559 -12.0454,21.33703 -19.5938,31.01973 -9.0807,11.96931 -18.3919,23.77758 -27.7417,35.52922 -7.2723,8.08953 -15.8501,14.87395 -23.4981,22.57046 -6.2257,5.18232 -13.2734,-2.25044 -9.4322,-8.70904 1.4276,-8.45151 -9.154,-13.73236 -14.8833,-7.40015 -5.5624,4.58475 -10.9277,0.10271 -11.3558,-6.01404 -1.1785,-3.01801 -4.9109,-4.4044 -7.0357,-1.42842 z"
           style="fill:#8e8e8e;fill-opacity:1;stroke:none" />
        <text
           sodipodi:linespacing="125%"
           id="text3947"
           y="411.61356"
           x="458.16949"
           style="font-size:72px;font-style:normal;font-variant:normal;font-weight:bold;font-stretch:normal;line-height:125%;letter-spacing:0px;word-spacing:0px;fill:#000000;fill-opacity:1;stroke:none;font-family:Comic Sans MS;-inkscape-font-specification:Comic Sans MS Bold"
           xml:space="preserve"><tspan
             y="411.61356"
             x="458.16949"
             id="tspan3949"
             sodipodi:role="line">so responsive</tspan></text>
        <text
           sodipodi:linespacing="125%"
           id="text3951"
           y="810.66443"
           x="842.44067"
           style="font-size:72px;font-style:normal;font-variant:normal;font-weight:bold;font-stretch:normal;line-height:125%;letter-spacing:0px;word-spacing:0px;fill:#000000;fill-opacity:1;stroke:none;font-family:Comic Sans MS;-inkscape-font-specification:Comic Sans MS Bold"
           xml:space="preserve"><tspan
             y="810.66443"
             x="842.44067"
             id="tspan3953"
             sodipodi:role="line">wow</tspan></text>
        <text
           sodipodi:linespacing="125%"
           id="text3955"
           y="1259.9661"
           x="546.84747"
           style="font-size:72px;font-style:normal;font-variant:normal;font-weight:bold;font-stretch:normal;line-height:125%;letter-spacing:0px;word-spacing:0px;fill:#000000;fill-opacity:1;stroke:none;font-family:Comic Sans MS;-inkscape-font-specification:Comic Sans MS Bold"
           xml:space="preserve"><tspan
             y="1259.9661"
             x="546.84747"
             id="tspan3957"
             sodipodi:role="line">can calculate</tspan></text>
        <path
           inkscape:connector-curvature="0"
           id="path3044"
           d="m 1581.6756,839.46956 c -11.6807,1.88613 -22.3525,6.84258 -33.2141,11.18881 -22.5352,7.56824 -45.856,12.37127 -68.7483,18.58863 -11.9938,2.50998 -16.0413,4.38194 -32.1691,7.57825 -16.878,-2.87419 -22.562,-9.23957 -33.1509,-14.74043 -13.5534,-10.44109 -19.5219,-10.96269 -46.3861,-15.22549 -33.3474,-4.73285 -48.6047,-9.63015 -78.2414,-19.26668 -17.4676,-5.67966 -20.5383,-17.52468 -22.458,-20.78692 9.6056,-7.13014 22.4306,-7.5523 33.5964,-10.91421 15.1472,-2.17475 29.6898,3.78654 44.6372,5.11787 19.5205,3.37771 36.9204,13.1021 55.1857,20.17579 15.9821,5.33893 32.3821,11.28454 44.5864,23.41008 10.6695,10.54261 24.9732,5.14355 36.984,0.83711 16.7136,-4.11757 33.9786,-5.41582 51.1662,-4.91773 14.3289,0 28.6577,0 42.9866,0 1.5572,-1.18436 3.5949,-0.083 5.2254,-1.04508 z"
           style="fill:#181818;fill-opacity:1;stroke:#000000;stroke-width:1px;stroke-linecap:butt;stroke-linejoin:miter;stroke-opacity:1"
           sodipodi:nodetypes="ccccccsccccccccc" />
      </g>
    </g>
  </g>
</svg>
